<?xml version="1.0" standalone="no"?>
<!DOCTYPE svg PUBLIC "-//W3C//DTD SVG 20010904//EN"
 "http://www.w3.org/TR/2001/REC-SVG-20010904/DTD/svg10.dtd">
<svg version="1.0" xmlns="http://www.w3.org/2000/svg"
 width="376.000000pt" height="112.000000pt" viewBox="0 0 376.000000 112.000000"
 preserveAspectRatio="xMidYMid meet">

<g transform="translate(0.000000,112.000000) scale(0.100000,-0.100000)"
fill="#000000" stroke="none">
<path d="M3132 846 c-11 -15 -28 -26 -38 -26 -29 0 -116 -45 -150 -77 -76 -72
-122 -190 -109 -284 11 -77 22 -58 27 44 3 78 8 100 30 138 36 61 104 122 161
144 42 16 52 16 89 4 39 -12 41 -12 60 10 16 21 17 26 5 45 -21 31 -51 31 -75
2z m55 -12 c9 -23 -13 -40 -32 -24 -12 10 -13 16 -4 26 15 18 28 18 36 -2z"/>
<path d="M3250 811 c0 -5 21 -19 48 -31 102 -45 172 -143 180 -250 7 -97 -3
-136 -36 -152 -53 -26 -19 -98 37 -77 21 8 23 14 18 51 -3 23 -1 65 5 94 18
90 -19 207 -87 277 -53 54 -165 114 -165 88z m230 -471 c0 -13 -7 -20 -19 -20
-22 0 -35 15 -26 30 12 19 45 11 45 -10z"/>
<path d="M568 792 c-30 -18 -58 -67 -58 -100 0 -26 40 -84 70 -100 37 -19 97
-8 131 24 98 94 -28 248 -143 176z m111 -59 c24 -30 20 -58 -11 -85 -59 -52
-136 34 -83 92 26 29 69 26 94 -7z"/>
<path d="M780 805 c0 -4 68 -183 112 -295 9 -23 14 -14 55 90 24 63 48 118 52
123 4 4 25 -39 46 -95 21 -57 43 -112 48 -122 8 -16 20 9 68 133 33 84 59 156
59 161 0 6 -11 10 -24 10 -21 0 -28 -11 -55 -81 -17 -44 -31 -86 -31 -92 0
-25 -20 12 -48 88 -27 73 -32 80 -59 83 -29 3 -31 0 -63 -87 -19 -50 -36 -88
-39 -85 -3 3 -19 42 -36 87 -27 73 -34 82 -58 85 -15 2 -27 1 -27 -3z"/>
<path d="M1265 798 c-3 -8 -4 -79 -3 -158 l3 -145 83 -3 82 -4 0 31 c0 31 0
31 -55 31 l-54 0 -3 128 c-3 123 -4 127 -26 130 -12 2 -24 -3 -27 -10z"/>
<path d="M1492 653 l3 -158 103 -3 102 -3 0 30 0 31 -81 0 -80 0 3 38 3 37 68
3 c64 3 68 4 65 25 -3 20 -10 22 -71 25 l-68 3 3 37 3 37 78 3 c74 3 77 4 77
27 0 25 0 25 -105 25 l-106 0 3 -157z"/>
<path d="M1760 651 l0 -162 63 7 c128 13 170 56 165 166 -5 99 -45 134 -163
145 l-65 6 0 -162z m125 95 c40 -17 55 -42 55 -90 0 -68 -30 -100 -100 -108
l-25 -3 -3 108 c-3 102 -2 107 18 107 11 0 36 -6 55 -14z"/>
<path d="M2132 793 c-51 -25 -76 -68 -80 -138 -3 -50 0 -66 20 -95 42 -63 125
-87 188 -55 27 14 30 14 30 0 0 -11 7 -15 23 -13 21 3 22 8 25 91 l3 87 -56 0
c-52 0 -55 -1 -55 -25 0 -20 5 -25 25 -25 20 0 25 -5 25 -24 0 -67 -131 -72
-165 -6 -30 58 -13 130 36 156 37 18 79 18 107 -2 18 -12 26 -13 37 -4 24 20
18 37 -19 54 -43 20 -102 20 -144 -1z"/>
<path d="M2410 650 l0 -161 100 2 100 1 0 29 0 29 -75 0 -75 0 0 40 0 40 65 0
c63 0 65 1 65 25 0 24 -2 25 -65 25 l-65 0 0 40 0 40 75 0 c73 0 75 1 75 25
l0 25 -100 0 -100 0 0 -160z"/>
<path d="M524 535 c-14 -36 2 -42 105 -44 l101 -2 0 31 0 30 -100 0 c-80 0
-102 -3 -106 -15z"/>
<path d="M2872 383 c-7 -2 -17 -13 -22 -24 -13 -23 3 -59 27 -59 9 0 35 -18
58 -39 86 -79 193 -110 302 -87 59 12 138 51 163 81 25 30 3 25 -49 -10 -68
-45 -120 -58 -206 -53 -77 5 -132 28 -189 79 -31 27 -34 33 -24 55 9 19 8 28
-7 44 -18 20 -29 23 -53 13z m36 -41 c3 -17 -2 -22 -17 -22 -14 0 -21 6 -21
18 0 38 33 41 38 4z"/>
<path d="M1470 305 c0 -43 4 -75 10 -75 6 0 10 10 10 23 l1 22 18 -23 c25 -29
33 -28 19 3 -8 19 -8 31 0 50 18 40 14 43 -13 10 l-25 -30 0 48 c0 26 -4 47
-10 47 -6 0 -10 -32 -10 -75z"/>
<path d="M1660 365 c-9 -11 -10 -22 -3 -38 7 -15 7 -27 -1 -39 -18 -30 4 -53
53 -54 29 -1 39 2 31 10 -13 13 -13 56 1 56 5 0 7 5 4 10 -3 6 -19 10 -35 10
-32 0 -48 16 -32 32 8 8 16 7 28 -3 14 -12 16 -11 13 6 -5 25 -41 31 -59 10z
m50 -90 c0 -25 -23 -35 -35 -15 -10 16 2 40 20 40 9 0 15 -9 15 -25z"/>
<path d="M1860 305 c0 -43 4 -75 10 -75 6 0 10 32 10 75 0 43 -4 75 -10 75 -6
0 -10 -32 -10 -75z"/>
<path d="M1068 338 c-10 -10 -14 -18 -10 -18 5 0 12 -19 18 -42 6 -31 15 -44
29 -47 19 -3 19 -3 3 16 -21 23 -23 59 -5 70 11 6 10 11 -2 23 -14 13 -18 13
-33 -2z"/>
<path d="M860 283 c0 -29 5 -53 10 -53 6 0 10 18 10 39 0 40 16 63 29 42 4 -6
6 -24 5 -41 -1 -17 2 -33 7 -36 5 -3 9 18 9 45 0 28 -3 52 -7 52 -5 1 -20 2
-35 3 -27 2 -28 0 -28 -51z"/>
<path d="M976 328 c-17 -10 -22 -63 -7 -86 10 -17 53 -12 59 6 3 9 -3 11 -22
6 -20 -5 -26 -2 -26 10 0 10 9 16 25 16 20 0 25 5 25 24 0 27 -27 39 -54 24z
m34 -18 c0 -5 -7 -10 -16 -10 -8 0 -12 5 -9 10 3 6 10 10 16 10 5 0 9 -4 9
-10z"/>
<path d="M1144 323 c3 -10 8 -35 12 -55 6 -39 34 -54 34 -19 0 28 18 36 22 9
6 -41 26 -30 38 22 14 57 7 79 -11 34 -11 -29 -11 -29 -20 -6 -11 28 -26 28
-35 0 -6 -21 -7 -21 -21 5 -15 30 -27 36 -19 10z"/>
<path d="M1295 323 c-18 -17 -20 -64 -3 -81 22 -22 57 -14 64 13 14 57 -27
103 -61 68z m43 -42 c3 -27 0 -32 -15 -29 -19 3 -28 30 -19 54 10 26 31 10 34
-25z"/>
<path d="M1390 283 c0 -29 5 -53 10 -53 6 0 10 18 10 40 0 27 5 43 15 46 24 9
17 22 -10 20 -23 -1 -25 -5 -25 -53z"/>
<path d="M1921 326 c-7 -8 -11 -32 -9 -53 3 -35 6 -38 32 -38 16 0 31 6 34 13
3 9 -3 11 -22 6 -20 -5 -26 -2 -26 10 0 10 9 16 25 16 31 0 35 34 6 50 -25 13
-26 13 -40 -4z m34 -16 c3 -5 -1 -10 -10 -10 -9 0 -13 5 -10 10 3 6 8 10 10
10 2 0 7 -4 10 -10z"/>
<path d="M2020 325 c-7 -9 -9 -19 -5 -23 4 -4 10 -1 12 6 6 16 33 16 33 -1 0
-7 -10 -17 -22 -22 -13 -6 -23 -19 -23 -30 0 -15 8 -21 33 -23 32 -3 32 -3 32
40 0 61 -31 88 -60 53z m36 -71 c-5 -14 -9 -15 -19 -5 -9 9 -9 14 3 21 18 11
24 6 16 -16z"/>
<path d="M2133 333 c-20 -4 -23 -11 -23 -54 0 -27 5 -49 10 -49 6 0 10 18 10
41 0 32 4 42 20 46 18 5 30 25 13 22 -5 -1 -18 -4 -30 -6z"/>
<path d="M2200 283 c0 -63 18 -71 22 -10 2 23 8 42 13 42 6 0 11 -19 13 -42 4
-57 22 -55 22 1 0 47 -10 61 -47 61 -21 1 -23 -4 -23 -52z"/>
</g>
</svg>
